<svg xmlns="http://www.w3.org/2000/svg" width="1920" height="1080"><path d="M883,1425L340,1478L1347,1453Z" fill="#8c8fac" stroke="#8c8fac" stroke-width="1.51"/><path d="M944,-303L1381,-290L1777,-351Z" fill="#b27b81" stroke="#b27b81" stroke-width="1.51"/><path d="M318,-363L944,-303L1777,-351Z" fill="#c48585" stroke="#c48585" stroke-width="1.51"/><path d="M61,-394L318,-363L1777,-351Z" fill="#bf7872" stroke="#bf7872" stroke-width="1.51"/><path d="M2142,454L2092,548L2173,707Z" fill="#94a7ce" stroke="#94a7ce" stroke-width="1.51"/><path d="M2142,454L2173,707L2293,300Z" fill="#949dbf" stroke="#949dbf" stroke-width="1.51"/><path d="M2293,300L2173,707L2303,1136Z" fill="#7d94ba" stroke="#7d94ba" stroke-width="1.51"/><path d="M2173,707L2211,1018L2303,1136Z" fill="#5584b3" stroke="#5584b3" stroke-width="1.51"/><path d="M1604,1417L1347,1453L2305,1454Z" fill="#376ea0" stroke="#376ea0" stroke-width="1.51"/><path d="M1963,1314L1604,1417L2305,1454Z" fill="#2665a0" stroke="#2665a0" stroke-width="1.51"/><path d="M2303,1136L1963,1314L2305,1454Z" fill="#1e5fa2" stroke="#1e5fa2" stroke-width="1.51"/><path d="M2226,220L2293,300L2355,-17Z" fill="#937383" stroke="#937383" stroke-width="1.51"/><path d="M2063,-134L2226,220L2355,-17Z" fill="#936478" stroke="#936478" stroke-width="1.51"/><path d="M2293,300L2303,1136L2355,-17Z" fill="#8d91ad" stroke="#8d91ad" stroke-width="1.51"/><path d="M2303,1136L2305,1454L2355,-17Z" fill="#6183ab" stroke="#6183ab" stroke-width="1.51"/><path d="M1777,-351L1983,-285L2361,-305Z" fill="#7d4a69" stroke="#7d4a69" stroke-width="1.51"/><path d="M2063,-134L2355,-17L2361,-305Z" fill="#84465f" stroke="#84465f" stroke-width="1.51"/><path d="M1983,-285L2063,-134L2361,-305Z" fill="#874766" stroke="#874766" stroke-width="1.51"/><path d="M2173,707L1983,866L2211,1018Z" fill="#6c98c7" stroke="#6c98c7" stroke-width="1.51"/><path d="M2063,-134L1976,154L2226,220Z" fill="#a07a8e" stroke="#a07a8e" stroke-width="1.51"/><path d="M2211,1018L1963,1314L2303,1136Z" fill="#2e73ae" stroke="#2e73ae" stroke-width="1.51"/><path d="M1976,1028L1963,1314L2211,1018Z" fill="#3780ba" stroke="#3780ba" stroke-width="1.51"/><path d="M2226,220L2142,454L2293,300Z" fill="#988fa8" stroke="#988fa8" stroke-width="1.51"/><path d="M1983,866L1976,1028L2211,1018Z" fill="#5a93c4" stroke="#5a93c4" stroke-width="1.51"/><path d="M1976,154L2142,454L2226,220Z" fill="#a194ae" stroke="#a194ae" stroke-width="1.51"/><path d="M1976,154L1862,245L2142,454Z" fill="#a69fb4" stroke="#a69fb4" stroke-width="1.51"/><path d="M2092,548L1887,756L2173,707Z" fill="#8dabd2" stroke="#8dabd2" stroke-width="1.51"/><path d="M1887,756L1983,866L2173,707Z" fill="#81a8d0" stroke="#81a8d0" stroke-width="1.51"/><path d="M1862,245L2092,548L2142,454Z" fill="#a1a9c6" stroke="#a1a9c6" stroke-width="1.51"/><path d="M1708,1319L1604,1417L1963,1314Z" fill="#3d7bb2" stroke="#3d7bb2" stroke-width="1.51"/><path d="M1720,371L1887,756L2092,548Z" fill="#a0bcda" stroke="#a0bcda" stroke-width="1.51"/><path d="M1862,245L1720,371L2092,548Z" fill="#a8b3c8" stroke="#a8b3c8" stroke-width="1.51"/><path d="M1983,-285L1707,-156L2063,-134Z" fill="#986074" stroke="#986074" stroke-width="1.51"/><path d="M1707,-156L1976,154L2063,-134Z" fill="#a27483" stroke="#a27483" stroke-width="1.51"/><path d="M1866,1015L1735,1199L1963,1314Z" fill="#3d89be" stroke="#3d89be" stroke-width="1.51"/><path d="M1866,1015L1963,1314L1976,1028Z" fill="#3e89bf" stroke="#3e89bf" stroke-width="1.51"/><path d="M1707,-156L1862,245L1976,154Z" fill="#ab8e98" stroke="#ab8e98" stroke-width="1.51"/><path d="M1777,-351L1707,-156L1983,-285Z" fill="#926072" stroke="#926072" stroke-width="1.51"/><path d="M1866,1015L1976,1028L1983,866Z" fill="#5f9cc9" stroke="#5f9cc9" stroke-width="1.51"/><path d="M1887,756L1866,1015L1983,866Z" fill="#72a8cf" stroke="#72a8cf" stroke-width="1.51"/><path d="M1707,-156L1572,-47L1862,245Z" fill="#b48f93" stroke="#b48f93" stroke-width="1.51"/><path d="M1572,-47L1583,192L1862,245Z" fill="#bea6a6" stroke="#bea6a6" stroke-width="1.51"/><path d="M1735,1199L1708,1319L1963,1314Z" fill="#3b82bb" stroke="#3b82bb" stroke-width="1.51"/><path d="M1381,-290L1545,-268L1777,-351Z" fill="#a3717b" stroke="#a3717b" stroke-width="1.51"/><path d="M1720,371L1501,611L1887,756Z" fill="#afcde2" stroke="#afcde2" stroke-width="1.51"/><path d="M1501,611L1645,873L1887,756Z" fill="#9fc7e0" stroke="#9fc7e0" stroke-width="1.51"/><path d="M1645,873L1866,1015L1887,756Z" fill="#79b1d4" stroke="#79b1d4" stroke-width="1.51"/><path d="M1645,873L1735,1199L1866,1015Z" fill="#63a4cd" stroke="#63a4cd" stroke-width="1.51"/><path d="M1583,192L1720,371L1862,245Z" fill="#b9b5bc" stroke="#b9b5bc" stroke-width="1.51"/><path d="M1645,873L1591,1226L1735,1199Z" fill="#61a3cc" stroke="#61a3cc" stroke-width="1.51"/><path d="M1545,-268L1707,-156L1777,-351Z" fill="#a26c78" stroke="#a26c78" stroke-width="1.51"/><path d="M1405,1017L1591,1226L1645,873Z" fill="#7bb5d6" stroke="#7bb5d6" stroke-width="1.51"/><path d="M1442,495L1501,611L1720,371Z" fill="#c6d9e4" stroke="#c6d9e4" stroke-width="1.51"/><path d="M1591,1226L1708,1319L1735,1199Z" fill="#518fc2" stroke="#518fc2" stroke-width="1.51"/><path d="M1583,192L1442,495L1720,371Z" fill="#c7cdd1" stroke="#c7cdd1" stroke-width="1.51"/><path d="M1591,1226L1604,1417L1708,1319Z" fill="#538abe" stroke="#538abe" stroke-width="1.51"/><path d="M1545,-268L1572,-47L1707,-156Z" fill="#b47e84" stroke="#b47e84" stroke-width="1.51"/><path d="M1352,429L1442,495L1583,192Z" fill="#d3d6d8" stroke="#d3d6d8" stroke-width="1.51"/><path d="M1572,-47L1413,51L1583,192Z" fill="#cba7a3" stroke="#cba7a3" stroke-width="1.51"/><path d="M1501,611L1405,1017L1645,873Z" fill="#a3cde3" stroke="#a3cde3" stroke-width="1.51"/><path d="M1067,1386L883,1425L1347,1453Z" fill="#8395b8" stroke="#8395b8" stroke-width="1.51"/><path d="M1232,695L1405,1017L1501,611Z" fill="#bddaea" stroke="#bddaea" stroke-width="1.51"/><path d="M1545,-268L1381,-290L1572,-47Z" fill="#bb8083" stroke="#bb8083" stroke-width="1.51"/><path d="M1405,1017L1333,1230L1591,1226Z" fill="#77abd1" stroke="#77abd1" stroke-width="1.51"/><path d="M1591,1226L1333,1230L1604,1417Z" fill="#6697c7" stroke="#6697c7" stroke-width="1.51"/><path d="M1333,1230L1347,1453L1604,1417Z" fill="#6990bc" stroke="#6990bc" stroke-width="1.51"/><path d="M1224,218L1352,429L1583,192Z" fill="#dbcfca" stroke="#dbcfca" stroke-width="1.51"/><path d="M1381,-290L1413,51L1572,-47Z" fill="#c7918f" stroke="#c7918f" stroke-width="1.51"/><path d="M1413,51L1224,218L1583,192Z" fill="#d9bcb3" stroke="#d9bcb3" stroke-width="1.51"/><path d="M1442,495L1232,695L1501,611Z" fill="#cfe3ee" stroke="#cfe3ee" stroke-width="1.51"/><path d="M944,-303L1087,-210L1381,-290Z" fill="#cd8887" stroke="#cd8887" stroke-width="1.51"/><path d="M1087,-210L1082,-102L1381,-290Z" fill="#d58e8b" stroke="#d58e8b" stroke-width="1.51"/><path d="M1381,-290L1082,-102L1413,51Z" fill="#d59792" stroke="#d59792" stroke-width="1.51"/><path d="M1352,429L1232,695L1442,495Z" fill="#dae8f1" stroke="#dae8f1" stroke-width="1.51"/><path d="M1232,695L1075,764L1405,1017Z" fill="#c3ddec" stroke="#c3ddec" stroke-width="1.51"/><path d="M1075,764L1030,831L1405,1017Z" fill="#c0dceb" stroke="#c0dceb" stroke-width="1.51"/><path d="M1082,-102L1224,218L1413,51Z" fill="#e4b5a9" stroke="#e4b5a9" stroke-width="1.51"/><path d="M1006,1159L1333,1230L1405,1017Z" fill="#8fb8d9" stroke="#8fb8d9" stroke-width="1.51"/><path d="M1030,831L1006,1159L1405,1017Z" fill="#accde3" stroke="#accde3" stroke-width="1.51"/><path d="M1333,1230L1067,1386L1347,1453Z" fill="#7f9bc4" stroke="#7f9bc4" stroke-width="1.51"/><path d="M666,1393L340,1478L883,1425Z" fill="#92869d" stroke="#92869d" stroke-width="1.51"/><path d="M960,378L1232,695L1352,429Z" fill="#eaedf0" stroke="#eaedf0" stroke-width="1.51"/><path d="M1224,218L960,378L1352,429Z" fill="#ede1db" stroke="#ede1db" stroke-width="1.51"/><path d="M1006,1159L1067,1386L1333,1230Z" fill="#8facd3" stroke="#8facd3" stroke-width="1.51"/><path d="M1082,-102L961,82L1224,218Z" fill="#edbaad" stroke="#edbaad" stroke-width="1.51"/><path d="M960,378L1075,764L1232,695Z" fill="#e8f0f4" stroke="#e8f0f4" stroke-width="1.51"/><path d="M961,82L895,184L1224,218Z" fill="#f5ccbb" stroke="#f5ccbb" stroke-width="1.51"/><path d="M895,184L960,378L1224,218Z" fill="#f6dace" stroke="#f6dace" stroke-width="1.51"/><path d="M919,813L1006,1159L1030,831Z" fill="#c3dbea" stroke="#c3dbea" stroke-width="1.51"/><path d="M1006,1159L896,1224L1067,1386Z" fill="#9ab1d4" stroke="#9ab1d4" stroke-width="1.51"/><path d="M960,378L796,674L1075,764Z" fill="#f1f3f5" stroke="#f1f3f5" stroke-width="1.51"/><path d="M796,674L919,813L1075,764Z" fill="#e2ebf0" stroke="#e2ebf0" stroke-width="1.51"/><path d="M944,-303L782,-154L1082,-102Z" fill="#e3958d" stroke="#e3958d" stroke-width="1.51"/><path d="M944,-303L1082,-102L1087,-210Z" fill="#dd918c" stroke="#dd918c" stroke-width="1.51"/><path d="M782,-154L961,82L1082,-102Z" fill="#eda89b" stroke="#eda89b" stroke-width="1.51"/><path d="M896,1224L883,1425L1067,1386Z" fill="#95a5c9" stroke="#95a5c9" stroke-width="1.51"/><path d="M919,813L1030,831L1075,764Z" fill="#d6e6f0" stroke="#d6e6f0" stroke-width="1.51"/><path d="M318,-363L522,-211L944,-303Z" fill="#ce7569" stroke="#ce7569" stroke-width="1.51"/><path d="M895,184L863,314L960,378Z" fill="#fbded0" stroke="#fbded0" stroke-width="1.51"/><path d="M606,935L896,1224L919,813Z" fill="#becdd9" stroke="#becdd9" stroke-width="1.51"/><path d="M919,813L896,1224L1006,1159Z" fill="#afcadf" stroke="#afcadf" stroke-width="1.51"/><path d="M522,-211L782,-154L944,-303Z" fill="#df877b" stroke="#df877b" stroke-width="1.51"/><path d="M863,314L796,674L960,378Z" fill="#faede5" stroke="#faede5" stroke-width="1.51"/><path d="M704,-11L895,184L961,82Z" fill="#f6bca8" stroke="#f6bca8" stroke-width="1.51"/><path d="M782,-154L704,-11L961,82Z" fill="#efa794" stroke="#efa794" stroke-width="1.51"/><path d="M606,935L546,1100L896,1224Z" fill="#b1bbc9" stroke="#b1bbc9" stroke-width="1.51"/><path d="M556,379L796,674L863,314Z" fill="#fbe6da" stroke="#fbe6da" stroke-width="1.51"/><path d="M666,1393L883,1425L896,1224Z" fill="#989ebe" stroke="#989ebe" stroke-width="1.51"/><path d="M796,674L606,935L919,813Z" fill="#dcdfe1" stroke="#dcdfe1" stroke-width="1.51"/><path d="M547,147L863,314L895,184Z" fill="#fbcdb7" stroke="#fbcdb7" stroke-width="1.51"/><path d="M704,-11L547,147L895,184Z" fill="#f7b9a0" stroke="#f7b9a0" stroke-width="1.51"/><path d="M546,1100L666,1393L896,1224Z" fill="#a4a8c1" stroke="#a4a8c1" stroke-width="1.51"/><path d="M556,379L557,674L796,674Z" fill="#f7e4da" stroke="#f7e4da" stroke-width="1.51"/><path d="M547,147L556,379L863,314Z" fill="#fcd0b8" stroke="#fcd0b8" stroke-width="1.51"/><path d="M557,674L606,935L796,674Z" fill="#e5dcd8" stroke="#e5dcd8" stroke-width="1.51"/><path d="M522,-211L704,-11L782,-154Z" fill="#e6917e" stroke="#e6917e" stroke-width="1.51"/><path d="M556,379L413,525L557,674Z" fill="#fbd8c8" stroke="#fbd8c8" stroke-width="1.51"/><path d="M522,-211L547,147L704,-11Z" fill="#ed9980" stroke="#ed9980" stroke-width="1.51"/><path d="M557,674L389,843L606,935Z" fill="#ddcbc4" stroke="#ddcbc4" stroke-width="1.51"/><path d="M546,1100L295,1204L666,1393Z" fill="#a798ab" stroke="#a798ab" stroke-width="1.51"/><path d="M295,1204L340,1478L666,1393Z" fill="#9c8195" stroke="#9c8195" stroke-width="1.51"/><path d="M522,-211L275,-49L547,147Z" fill="#e8896e" stroke="#e8896e" stroke-width="1.51"/><path d="M389,843L546,1100L606,935Z" fill="#c7bdbd" stroke="#c7bdbd" stroke-width="1.51"/><path d="M389,843L295,1204L546,1100Z" fill="#b9a8ab" stroke="#b9a8ab" stroke-width="1.51"/><path d="M547,147L292,267L556,379Z" fill="#f9bc9e" stroke="#f9bc9e" stroke-width="1.51"/><path d="M413,525L377,628L557,674Z" fill="#f4d1c2" stroke="#f4d1c2" stroke-width="1.51"/><path d="M377,628L389,843L557,674Z" fill="#eaccbf" stroke="#eaccbf" stroke-width="1.51"/><path d="M292,267L413,525L556,379Z" fill="#fac6ad" stroke="#fac6ad" stroke-width="1.51"/><path d="M275,-49L292,267L547,147Z" fill="#f19e7c" stroke="#f19e7c" stroke-width="1.51"/><path d="M318,-363L275,-49L522,-211Z" fill="#d66855" stroke="#d66855" stroke-width="1.51"/><path d="M-5,929L196,1189L389,843Z" fill="#be9899" stroke="#be9899" stroke-width="1.51"/><path d="M196,1189L295,1204L389,843Z" fill="#b2979d" stroke="#b2979d" stroke-width="1.51"/><path d="M377,628L26,786L389,843Z" fill="#e2b6ab" stroke="#e2b6ab" stroke-width="1.51"/><path d="M133,342L377,628L413,525Z" fill="#f7c2af" stroke="#f7c2af" stroke-width="1.51"/><path d="M292,267L133,342L413,525Z" fill="#f5b69d" stroke="#f5b69d" stroke-width="1.51"/><path d="M62,-129L275,-49L318,-363Z" fill="#d0594a" stroke="#d0594a" stroke-width="1.51"/><path d="M295,1204L196,1189L340,1478Z" fill="#a07b8f" stroke="#a07b8f" stroke-width="1.51"/><path d="M133,342L30,616L377,628Z" fill="#f2b5a5" stroke="#f2b5a5" stroke-width="1.51"/><path d="M30,616L26,786L377,628Z" fill="#e4aca1" stroke="#e4aca1" stroke-width="1.51"/><path d="M26,786L-5,929L389,843Z" fill="#cf9f9a" stroke="#cf9f9a" stroke-width="1.51"/><path d="M275,-49L26,133L292,267Z" fill="#e8886b" stroke="#e8886b" stroke-width="1.51"/><path d="M196,1189L93,1485L340,1478Z" fill="#936679" stroke="#936679" stroke-width="1.51"/><path d="M61,-394L62,-129L318,-363Z" fill="#ba443e" stroke="#ba443e" stroke-width="1.51"/><path d="M-7,38L26,133L275,-49Z" fill="#dd6f57" stroke="#dd6f57" stroke-width="1.51"/><path d="M26,133L133,342L292,267Z" fill="#ec967c" stroke="#ec967c" stroke-width="1.51"/><path d="M62,-129L-7,38L275,-49Z" fill="#d6614d" stroke="#d6614d" stroke-width="1.51"/><path d="M-5,929L-228,1110L196,1189Z" fill="#a87883" stroke="#a87883" stroke-width="1.51"/><path d="M-228,1110L-137,1427L196,1189Z" fill="#965f77" stroke="#965f77" stroke-width="1.51"/><path d="M-137,1427L93,1485L196,1189Z" fill="#8f586f" stroke="#8f586f" stroke-width="1.51"/><path d="M61,-394L-180,-244L62,-129Z" fill="#b83134" stroke="#b83134" stroke-width="1.51"/><path d="M-199,382L30,616L133,342Z" fill="#e99b8c" stroke="#e99b8c" stroke-width="1.51"/><path d="M26,133L-199,382L133,342Z" fill="#e58b76" stroke="#e58b76" stroke-width="1.51"/><path d="M-199,382L-215,565L30,616Z" fill="#e3958c" stroke="#e3958c" stroke-width="1.51"/><path d="M-228,1110L-277,1302L-137,1427Z" fill="#8a4d6a" stroke="#8a4d6a" stroke-width="1.51"/><path d="M-118,104L-199,382L26,133Z" fill="#dd7763" stroke="#dd7763" stroke-width="1.51"/><path d="M-285,-322L-180,-244L61,-394Z" fill="#a31c2b" stroke="#a31c2b" stroke-width="1.51"/><path d="M-180,-244L-7,38L62,-129Z" fill="#c7453d" stroke="#c7453d" stroke-width="1.51"/><path d="M-180,-244L-118,104L-7,38Z" fill="#ca4c41" stroke="#ca4c41" stroke-width="1.51"/><path d="M-215,565L-315,758L26,786Z" fill="#d38c89" stroke="#d38c89" stroke-width="1.51"/><path d="M-7,38L-118,104L26,133Z" fill="#d96a56" stroke="#d96a56" stroke-width="1.51"/><path d="M-215,565L26,786L30,616Z" fill="#dd9992" stroke="#dd9992" stroke-width="1.51"/><path d="M-315,758L-5,929L26,786Z" fill="#c88b8a" stroke="#c88b8a" stroke-width="1.51"/><path d="M-262,1049L-228,1110L-5,929Z" fill="#a7707b" stroke="#a7707b" stroke-width="1.51"/><path d="M-315,758L-262,1049L-5,929Z" fill="#b77b80" stroke="#b77b80" stroke-width="1.51"/><path d="M-315,758L-380,919L-262,1049Z" fill="#a5747c" stroke="#a5747c" stroke-width="1.51"/><path d="M-180,-244L-447,7L-118,104Z" fill="#bc3d3a" stroke="#bc3d3a" stroke-width="1.51"/><path d="M-447,7L-392,108L-118,104Z" fill="#bc5147" stroke="#bc5147" stroke-width="1.51"/><path d="M-392,108L-199,382L-118,104Z" fill="#d16b5a" stroke="#d16b5a" stroke-width="1.51"/><path d="M-455,449L-215,565L-199,382Z" fill="#d1857f" stroke="#d1857f" stroke-width="1.51"/><path d="M-392,108L-455,449L-199,382Z" fill="#c5746a" stroke="#c5746a" stroke-width="1.51"/><path d="M-285,-322L-447,7L-180,-244Z" fill="#a71f2c" stroke="#a71f2c" stroke-width="1.51"/><path d="M-455,449L-315,758L-215,565Z" fill="#c78685" stroke="#c78685" stroke-width="1.51"/><path d="M-262,1049L-277,1302L-228,1110Z" fill="#8e5b6f" stroke="#8e5b6f" stroke-width="1.51"/><path d="M-380,919L-277,1302L-262,1049Z" fill="#8d6072" stroke="#8d6072" stroke-width="1.51"/><path d="M-455,449L-380,919L-315,758Z" fill="#b57e82" stroke="#b57e82" stroke-width="1.51"/><path d="M-447,7L-455,449L-392,108Z" fill="#b55f54" stroke="#b55f54" stroke-width="1.51"/></svg>